<?xml version="1.0" encoding="UTF-8"?>
<svg xmlns="http://www.w3.org/2000/svg" width="600" height="600" viewBox="0 0 48 48" fill="none" aria-hidden="true">
  <path d="M18 28c-4.5.4-8 2.7-9.5 6.2" stroke="currentColor" stroke-width="2.5" stroke-linecap="round"/>
  <path d="M30 28c4.5.4 8 2.7 9.5 6.2" stroke="currentColor" stroke-width="2.5" stroke-linecap="round"/>
  <rect x="15" y="8" width="18" height="16" rx="5" stroke="currentColor" stroke-width="2.5"/>
  <path d="M24 5v3" stroke="currentColor" stroke-width="2.5" stroke-linecap="round"/>
  <circle cx="24" cy="4.75" r="1.75" stroke="currentColor" stroke-width="2"/>
  <path d="M12 16h3M33 16h3" stroke="currentColor" stroke-width="2.5" stroke-linecap="round"/>
  <circle cx="20.5" cy="15.5" r="2.5" stroke="currentColor" stroke-width="2"/>
  <circle cx="27.5" cy="15.5" r="2.5" stroke="currentColor" stroke-width="2"/>
  <path d="M23 19.5h2" stroke="currentColor" stroke-width="2" stroke-linecap="round"/>
  <path d="M16 36c3.8 0 6.2.9 8 2.5V31c-1.8-1.5-4.4-2.5-8-2.5h-3v7.5h3Z" stroke="currentColor" stroke-width="2.5" stroke-linejoin="round"/>
  <path d="M32 36c-3.8 0-6.2.9-8 2.5V31c1.8-1.5 4.4-2.5 8-2.5h3v7.5h-3Z" stroke="currentColor" stroke-width="2.5" stroke-linejoin="round"/>
  <path d="M24 38.5v2" stroke="currentColor" stroke-width="2.5" stroke-linecap="round"/>
  <path d="M20 27.5h8" stroke="currentColor" stroke-width="2.5" stroke-linecap="round"/>
  <path d="M20 33.5 24 29l4 4.5M24 29v-2.5" stroke="#3182bd" stroke-width="2.25" stroke-linecap="round" stroke-linejoin="round"/>
  <circle cx="24" cy="29" r="1.75" fill="#3182bd"/>
</svg>
